<svg
  width="600"
  viewBox="0 0 285 60"
  fill="none"
  xmlns="http://www.w3.org/2000/svg"
>
  <path
    d="M56.0187 15.3645L30.5421 1L3.98132 15.3645V44.3645L30.5421 59L56.0187 44.3645L13.1963 20.514L30.5421 10.486L56.0187 25.1215L30.5421 38.9439L13.1963 29.729L30.5421 20.514L56.0187 34.6075L30.5421 49.243L13.1963 38.9439L56.0187 15.3645Z"
    stroke="var(--BRAND_1)"
    stroke-width="1.3"
  ></path>
  <path
    d="M83.884 19.312C82.408 19.312 80.824 19.708 79.528 20.824C78.268 21.904 77.44 23.668 77.44 25.72V36.628C77.44 38.644 78.268 40.408 79.528 41.524C80.824 42.604 82.408 43 83.884 43H104.224C105.736 43 107.284 42.604 108.58 41.524C109.876 40.408 110.704 38.644 110.704 36.628L110.632 34.972H106.024V36.844C106.024 37.888 105.736 38.32 105.34 38.644C104.98 38.968 104.332 39.148 103.648 39.148H84.46C83.776 39.148 83.128 38.968 82.768 38.644C82.372 38.32 82.084 37.888 82.084 36.844V25.468C82.084 24.424 82.372 24.028 82.768 23.704C83.128 23.38 83.776 23.164 84.46 23.164H103.648C104.332 23.164 104.98 23.38 105.34 23.704C105.736 24.028 106.024 24.424 106.024 25.468V27.34H110.632L110.704 25.72C110.704 23.668 109.876 21.904 108.58 20.788C107.284 19.708 105.736 19.312 104.224 19.312H83.884ZM111.594 19.312L118.074 25.36L124.266 31.12L125.022 31.804L125.922 32.668V43H130.602V32.668L131.538 31.804L132.294 31.12L138.45 25.36L144.966 19.312H138.45L131.97 25.36L129.018 28.06L128.262 28.78L127.506 28.06L124.59 25.36L118.074 19.312H111.594ZM147.53 19.312V43H152.174V33.064H176.078V29.176H152.174V23.164H177.59V19.312H147.53ZM180.954 19.312V43H211.014V39.148H185.598V33.064H209.466V29.176H185.598V23.164H211.014V19.312H180.954ZM214.905 43H219.549V34.972H238.557C239.241 34.972 239.853 35.188 240.249 35.512C240.609 35.836 240.897 36.232 240.897 37.312C240.897 37.312 240.897 42.532 240.897 43.036H245.577V37.528C245.577 35.728 244.929 34.144 243.921 33.064C244.929 31.948 245.577 30.364 245.577 28.564V25.72C245.577 23.668 244.749 21.904 243.489 20.824C242.193 19.708 240.609 19.312 239.133 19.312H214.905V43ZM219.549 23.164H238.557C239.241 23.164 239.853 23.38 240.249 23.704C240.609 24.028 240.897 24.424 240.897 25.468V28.816C240.897 29.86 240.609 30.256 240.249 30.58C239.853 30.904 239.241 31.12 238.557 31.12H219.549V23.164ZM250.016 19.312V43H276.764C278.24 43 279.824 42.604 281.12 41.524C282.38 40.408 283.208 38.644 283.208 36.628V25.72C283.208 23.668 282.38 21.904 281.12 20.824C279.824 19.708 278.24 19.312 276.764 19.312H250.016ZM254.66 23.164H276.188C276.872 23.164 277.52 23.38 277.88 23.704C278.276 24.028 278.564 24.424 278.564 25.468V36.844C278.564 37.888 278.276 38.32 277.88 38.644C277.52 38.968 276.872 39.148 276.188 39.148H254.66V23.164Z"
    fill="var(--BRAND_1)"
  ></path>
</svg>
